<svg xmlns="http://www.w3.org/2000/svg" width="51.529" height="42.817" viewBox="-52 -6 52 43">
  <title>arrow</title>

  <path fill="content" d="M -20.167 26.108 L -10.167 16.108 C -9.386 15.327 -9.386 14.936 -10.167 14.155 L -20.167 4.155 C -20.948 3.374 -20.755 3.374 -21.536 4.155 C -22.317 4.936 -22.317 6.202 -21.536 6.983 L -14.95 13.569 L -41.561 13.569 C -42.666 13.569 -43.561 14.027 -43.561 15.132 C -43.561 16.237 -42.666 16.694 -41.561 16.694 L -14.95 16.694 L -21.536 23.28 C -21.926 23.67 -22.122 24.182 -22.122 24.694 C -22.122 25.206 -21.927 25.718 -21.536 26.108 C -20.755 26.889 -20.948 26.889 -20.167 26.108 Z"/>
</svg>