<svg version="1.2" xmlns="http://www.w3.org/2000/svg" viewBox="0 0 262 72" width="262" height="72">
	<title>New Project</title>
	<style>
		tspan { white-space:pre } 
		.s0 { fill: #000000 } 
	</style>
	<path id="kace copy" fill-rule="evenodd" class="s0" d="m15.5 70h-13.1v-68h13.1v32.4h10.3l20.7-22.4h14v3.6l-23.1 25.4 23 25.4v3.6h-13.9l-20.7-22.4h-10.3zm110.2 0h-45.1q-3.8 0-7-1.9-3.1-1.9-5-5-1.8-3.1-1.8-6.9v-21.8h45.8v-8.1q0-0.5-0.4-0.8-0.3-0.4-0.8-0.4h-44.6v-13.1h45.1q3.8 0 6.9 1.9 3.2 1.9 5 5 1.9 3.1 1.9 6.9zm-44.6-13.1h31.5v-10.7h-32.7v9.5q0 0.5 0.3 0.9 0.4 0.3 0.9 0.3zm66.1 13.1q-3.8 0-6.9-1.9-3.1-1.9-5-5-1.9-3.1-1.9-6.9v-30.4q0-3.8 1.9-6.9 1.9-3.1 5-5 3.1-1.9 6.9-1.9h45v13.1h-44.5q-0.5 0-0.9 0.4-0.3 0.3-0.3 0.8v29.4q0 0.5 0.3 0.9 0.4 0.3 0.9 0.3h44.6v13.1zm67 0q-3.8 0-6.9-1.9-3.1-1.9-5-5-1.9-3.1-1.9-6.9v-30.4q0-3.8 1.9-6.9 1.9-3.1 5-5 3.1-1.9 6.9-1.9h31.3q3.8 0 6.9 1.9 3.2 1.9 5 5 1.9 3.1 1.9 6.9v21.8h-45.8v8.1q0 0.5 0.3 0.9 0.4 0.3 0.9 0.3h44.6v13.1zm-0.7-43.7v9.5h32.7v-9.5q0-0.5-0.4-0.8-0.3-0.4-0.8-0.4h-30.3q-0.5 0-0.9 0.4-0.3 0.3-0.3 0.8z"/>
</svg>