<svg version="1.2" xmlns="http://www.w3.org/2000/svg" viewBox="0 0 398 110" width="398" height="110">
	<title>New Project</title>
	<style>
		.s0 { fill: #000000 } 
	</style>
	<path id="kace" fill-rule="evenodd" class="s0" d="m33.4 105h-26.6v-101.4h26.6v38.8l11.8-0.4 20.8-37.4h27.8l-25.4 47.2 26.8 53.2h-28l-21.6-39.8-12.2 0.6zm99.8 2.2q-15.6 0-23.6-7.8-7.8-8-7.8-24 0-11.2 4-17.4 4-6.4 11.8-9.2 8-3 19.4-3.6l24.4-2.2v-6q0-7.2-3.6-10-3.6-3-10.6-3-5.6 0-13 0.4-7.2 0.4-14.4 1-7 0.6-12.2 1.2l-0.8-18.8q5.2-1.2 12.4-2.4 7.4-1.4 15.4-2.2 8-0.8 14.8-0.8 12.8 0 21.4 3.2 8.6 3.2 13 10.6 4.4 7.2 4.4 19.6v45.8q0.4 2.8 3 4.4 2.6 1.4 6 2l-0.6 18.4q-3.2 0-6.4 0.2-3 0-5.8 0-2.8-0.2-5-0.6-4.6-0.6-8-2.4-3.2-1.8-5.2-3.8-3.2 1.4-8.6 3.2-5.4 1.8-11.8 3-6.2 1.2-12.6 1.2zm6.4-19.8q3.8 0 8-0.8 4.2-0.8 7.8-1.8 3.8-1.2 6-2.2v-23l-20.4 1.8q-6.6 0.6-9.6 4-2.8 3.2-2.8 9.2 0 6 2.6 9.4 2.8 3.4 8.4 3.4zm113 19.8q-17.2 0-27-5.2-9.6-5.4-13.6-17.2-3.8-11.8-3.8-31 0-19 4.4-30.2 4.4-11.4 14.2-16.2 10-5 26-5 4.2 0 9.8 0.6 5.6 0.6 11.2 1.6 5.8 0.8 9.8 1.6l-1 21.4q-3.8-0.4-8.6-0.6-4.8-0.4-9.4-0.6-4.4-0.4-7.2-0.4-8.6 0-13.6 2.8-4.8 2.6-6.8 8.8-1.8 6-1.8 16.2 0 11 1.8 17.6 1.8 6.6 6.4 9.4 4.8 2.8 14 2.8 2.8 0 7.4-0.2 4.6-0.4 9.4-0.8 5-0.4 8.8-0.6l0.8 21.4q-4 0.8-9.6 1.8-5.6 0.8-11.4 1.4-5.6 0.6-10.2 0.6zm88 0q-16.6 0-26.4-5.6-9.6-5.6-13.8-17-4.2-11.4-4.2-28.6 0-18.6 5.2-30.4 5.4-11.8 15.6-17.4 10.2-5.8 25.2-5.8 22.2 0 33.4 11.2 11.4 11.2 11.4 35.4l-1.2 14.8h-62.8q0.2 11.2 4.6 16.8 4.4 5.6 15.2 5.6 6.2 0 13.6-0.2 7.4-0.4 14.6-0.8 7.4-0.4 12.6-0.8l0.6 18.6q-5 0.8-12.6 1.8-7.6 1-15.8 1.8-8 0.6-15.2 0.6zm-17.6-60.4h37.4q0-13.6-4.4-19-4.2-5.4-13.8-5.4-6.4 0-10.6 2.4-4.2 2.4-6.4 7.8-2.2 5.4-2.2 14.2z"/>
</svg>